<svg width="199" height="199" viewBox="0 0 199 199" fill="none" xmlns="http://www.w3.org/2000/svg">
<g filter="url(#filter0_d_17_3512)">
<path d="M60.4459 7.11365C61.7717 6.3896 64.0661 5.46497 65.5436 5.06381C67.021 4.66265 69.7753 4.32019 71.6588 4.30063C73.5423 4.28106 76.4043 4.61373 78.0187 5.03446C79.6331 5.45519 82.2456 6.50212 83.8258 7.35826C85.4059 8.21928 87.9597 10.2398 89.5007 11.8542C91.0418 13.4686 92.8861 15.9441 93.6004 17.3579C94.3146 18.7718 95.2295 21.3598 95.6306 23.1063C96.159 25.4007 96.3302 28.5513 96.1199 42.543L93.4292 43.36C91.9517 43.8101 89.7502 44.7641 88.5369 45.4734C87.3237 46.1828 85.6554 47.3863 84.8287 48.1446C83.997 48.9029 82.6125 50.6249 81.7563 51.9703C80.8953 53.3157 79.8728 55.5171 79.4864 56.8625C79.0999 58.2079 78.6645 60.1354 78.2633 62.9778H68.4789V67.87H78.2633V77.7767C78.2584 86.8175 78.1753 87.8204 77.2849 89.2734C76.7467 90.1491 75.5384 91.196 74.5942 91.5972C73.1558 92.2136 69.428 92.331 51.4785 92.3261C34.2677 92.3163 29.4782 92.1745 27.0174 91.5923C25.3345 91.1911 22.8591 90.3105 21.5137 89.6403C20.1683 88.9652 17.6929 87.1306 16.01 85.5553C14.3075 83.9604 12.2625 81.4116 11.3917 79.807C10.5356 78.217 9.48866 75.5997 9.06793 73.9852C8.6472 72.3708 8.29985 69.6165 8.29985 67.87C8.29496 66.1235 8.65209 63.4768 9.0875 61.9993C9.52291 60.5219 10.379 58.3204 10.9857 57.1071C11.5972 55.8938 13.1872 53.6924 14.5227 52.2149C15.8583 50.7375 18.0353 48.8148 19.3562 47.944C20.6771 47.0781 22.9667 45.8795 24.449 45.2826C26.8315 44.3189 28.309 44.1623 47.687 43.6535L47.9463 33.1353C48.1811 23.7178 48.323 22.3333 49.3063 19.9263C49.9081 18.444 51.1116 16.1544 51.9775 14.8335C52.8483 13.5078 54.5655 11.5264 55.7983 10.4306C57.0311 9.32981 59.125 7.83769 60.4459 7.11365Z" fill="white"/>
<path d="M115.322 7.03537C116.736 6.32111 119.045 5.42094 120.459 5.03935C121.872 4.65286 124.568 4.32509 126.452 4.31041C128.335 4.29573 130.977 4.57948 132.322 4.93661C133.668 5.29864 135.982 6.20859 137.459 6.96688C138.936 7.72028 141.324 9.46191 142.757 10.8317C144.191 12.2015 146.001 14.3101 146.779 15.5233C147.561 16.7317 148.687 18.9332 149.283 20.4156C150.247 22.7981 150.404 24.2755 150.913 43.6535L161.431 43.9128C170.848 44.1477 172.233 44.2895 174.64 45.2729C176.117 45.8746 178.412 47.0781 179.733 47.944C181.058 48.8148 183.04 50.532 184.136 51.7648C185.236 52.9977 186.728 55.0915 187.452 56.4124C188.177 57.7382 189.111 60.1403 189.532 61.7547C189.952 63.3691 190.3 66.1235 190.3 67.87C190.3 69.6165 189.952 72.3708 189.532 73.9852C189.111 75.5997 188.064 78.2121 187.208 79.7923C186.347 81.3725 184.326 83.9262 182.712 85.4672C181.098 87.0083 178.622 88.8526 177.208 89.5669C175.794 90.2812 173.265 91.1911 171.582 91.5923C169.117 92.1745 164.278 92.3163 146.632 92.3261C128.247 92.331 124.465 92.2136 123.027 91.5972C122.083 91.196 120.874 90.1491 120.336 89.2734C119.431 87.7959 119.363 86.8126 119.358 75.2083C119.353 68.3494 119.133 61.4123 118.859 59.7978C118.59 58.1834 117.822 55.7079 117.151 54.2941C116.481 52.8802 114.857 50.5711 113.541 49.1573C112.23 47.7434 110.082 46.0067 108.771 45.2924C107.465 44.5782 105.454 43.6976 102.211 42.6751L102.23 34.3583C102.245 28.6149 102.485 25.0583 103.003 22.8617C103.419 21.1151 104.461 18.3902 105.322 16.81C106.178 15.2298 108.204 12.6761 109.818 11.135C111.432 9.59399 113.908 7.74963 115.322 7.03537Z" fill="white"/>
<path d="M93.9918 57.2588C94.6228 56.6717 95.6942 55.9672 96.3645 55.6982C97.0396 55.434 98.248 55.1943 99.0552 55.1698C99.8624 55.1502 101.487 55.6297 102.661 56.2412C103.962 56.9163 105.166 58.0268 105.723 59.064C106.227 60.0082 106.648 61.7645 106.653 62.9778C106.663 64.4699 106.305 65.7174 105.552 66.8475C104.941 67.7623 103.815 68.9756 103.057 69.5382C102.059 70.2769 100.948 70.5607 99.0552 70.5607C97.1619 70.5607 96.0514 70.2769 95.0534 69.5382C94.2951 68.9756 93.1699 67.7623 92.5583 66.8475C91.8245 65.7516 91.4478 64.4699 91.4576 63.1001C91.4674 61.9553 91.7805 60.4142 92.1572 59.6755C92.5388 58.9368 93.3656 57.8458 93.9918 57.2588Z" fill="white"/>
<path d="M21.3914 100.966C22.8052 100.251 25.2269 99.3562 26.7728 98.9746C29.0379 98.4169 35.4125 98.275 59.4283 98.2555C87.3873 98.2261 89.3931 98.2799 91.2277 99.1214C92.3039 99.6155 93.5564 100.437 94.0113 100.946C94.4663 101.455 95.1806 102.698 95.6013 103.705C96.2666 105.3 96.3645 109.405 96.3596 135.016C96.3498 159.878 96.2324 164.99 95.5964 167.671C95.1806 169.422 94.1385 172.142 93.2775 173.723C92.4214 175.303 90.396 177.857 88.7816 179.398C87.1671 180.939 84.6917 182.783 83.2778 183.497C81.864 184.212 79.4423 185.126 77.8964 185.532C76.3505 185.934 73.65 186.261 71.9034 186.256C70.1569 186.252 67.6228 185.953 66.2774 185.596C64.932 185.234 62.618 184.324 61.1406 183.566C59.6631 182.812 57.2757 181.071 55.8423 179.701C54.4089 178.331 52.5988 176.223 51.8209 175.009C51.0382 173.796 49.913 171.595 49.3161 170.117C48.3524 167.735 48.1958 166.257 47.687 146.879L37.1688 146.62C27.7513 146.385 26.3668 146.243 23.9598 145.26C22.4775 144.658 20.1879 143.455 18.867 142.589C17.5412 141.718 15.5599 140.001 14.464 138.768C13.3633 137.535 11.8712 135.441 11.1471 134.12C10.4231 132.794 9.48866 130.392 9.06793 128.778C8.6472 127.164 8.29985 124.409 8.29985 122.663C8.29985 120.916 8.6472 118.162 9.06793 116.547C9.48866 114.933 10.5356 112.321 11.3917 110.74C12.2528 109.16 14.2732 106.606 15.8877 105.065C17.5021 103.524 19.9776 101.68 21.3914 100.966Z" fill="white"/>
<path d="M104.588 100.946C105.043 100.437 106.296 99.6155 107.372 99.1214C109.202 98.2799 111.247 98.2212 138.927 98.2212C163.926 98.2163 169.019 98.3337 171.704 98.9697C173.456 99.3856 176.176 100.428 177.756 101.289C179.336 102.145 181.89 104.17 183.431 105.785C184.972 107.399 186.816 109.874 187.531 111.288C188.245 112.702 189.16 115.124 189.566 116.67C189.967 118.216 190.3 120.916 190.3 122.663C190.305 124.409 189.948 127.056 189.512 128.533C189.077 130.011 188.221 132.212 187.614 133.426C187.002 134.639 185.412 136.84 184.077 138.318C182.741 139.795 180.564 141.718 179.243 142.589C177.922 143.455 175.628 144.653 174.151 145.25C171.768 146.214 170.291 146.37 150.913 146.879L150.653 157.397C150.418 166.815 150.277 168.199 149.293 170.606C148.692 172.084 147.488 174.378 146.622 175.699C145.751 177.025 144.034 179.006 142.801 180.102C141.568 181.203 139.475 182.695 138.154 183.419C136.828 184.143 134.426 185.077 132.811 185.498C131.197 185.919 128.443 186.266 126.696 186.266C124.95 186.266 122.249 185.934 120.703 185.532C119.157 185.126 116.736 184.212 115.322 183.497C113.908 182.783 111.432 180.939 109.818 179.398C108.204 177.857 106.178 175.303 105.322 173.723C104.461 172.142 103.419 169.422 103.003 167.671C102.367 164.99 102.25 159.878 102.24 135.016C102.235 109.405 102.333 105.3 102.998 103.705C103.419 102.698 104.133 101.455 104.588 100.946Z" fill="white"/>
</g>
<defs>
<filter id="filter0_d_17_3512" x="-0.000195503" y="-0.000195503" width="198.6" height="198.566" filterUnits="userSpaceOnUse" color-interpolation-filters="sRGB">
<feFlood flood-opacity="0" result="BackgroundImageFix"/>
<feColorMatrix in="SourceAlpha" type="matrix" values="0 0 0 0 0 0 0 0 0 0 0 0 0 0 0 0 0 0 127 0" result="hardAlpha"/>
<feOffset dy="4"/>
<feGaussianBlur stdDeviation="4.15"/>
<feComposite in2="hardAlpha" operator="out"/>
<feColorMatrix type="matrix" values="0 0 0 0 0.121569 0 0 0 0 0.129412 0 0 0 0 0.145098 0 0 0 0.12 0"/>
<feBlend mode="normal" in2="BackgroundImageFix" result="effect1_dropShadow_17_3512"/>
<feBlend mode="normal" in="SourceGraphic" in2="effect1_dropShadow_17_3512" result="shape"/>
</filter>
</defs>
</svg>